<?xml version="1.0" encoding="UTF-8"?>
<svg width="63px" height="43px" viewBox="0 0 63 43" version="1.1" xmlns="http://www.w3.org/2000/svg" xmlns:xlink="http://www.w3.org/1999/xlink">
    <title>ZL</title>
    <g id="Page-1" stroke="none" stroke-width="1" fill="none" fill-rule="evenodd">
        <g id="Desktop-HD-Copy-2" transform="translate(-130.000000, -41.000000)" fill="#000000" fill-rule="nonzero">
            <path d="M158.145273,80.5901543 C159.899947,81.0910768 161.779954,81.1328204 163.785295,80.7153849 C165.080411,80.4649236 166.281526,80.06836 167.388642,79.5256939 C168.495757,78.9830278 169.425316,78.1064133 170.177319,76.8958505 C170.386209,76.5201586 170.521987,76.0401078 170.584654,75.4556982 C170.647321,74.8712886 170.647321,74.3808019 170.584654,73.9842382 C170.521987,73.5876745 170.427986,73.3789568 170.302653,73.358085 C170.177319,73.3372133 168.810497,76.0192361 167.07932,77.3300905 C166.439608,77.8144829 165.845109,77.9921799 165.351967,78.1794645 C164.502506,78.5020716 163.792212,78.737884 162.774441,78.8369254 C161.165819,78.9934637 159.409056,78.6177718 157.800605,78.1794645 C156.192155,77.7411573 154.604593,77.2089271 153.037921,76.5827739 C151.471248,75.9566207 149.956798,75.2991599 148.49457,74.6103914 C147.032342,73.9216229 145.695448,73.3685209 144.483888,72.9510855 C146.113228,71.4483178 147.606789,69.9351143 148.964572,68.4114749 C150.322355,66.8878355 151.669693,65.2494013 153.006587,63.4961724 C153.883924,64.0805821 154.813483,64.5919405 155.795264,65.0302477 C156.777046,65.4685549 157.790161,65.6877086 158.834609,65.6877086 C159.879058,65.6877086 160.965284,65.3955037 162.093288,64.8110941 C163.221293,64.2266845 164.391075,63.2457111 165.602635,61.8681741 C165.853302,61.5759693 165.884636,61.2837645 165.696635,60.9915597 C165.508635,60.6993549 165.247522,60.6576113 164.913299,60.8663291 C163.785295,62.160379 162.719957,63.078737 161.717287,63.6214031 C160.714616,64.1640691 159.753724,64.456274 158.834609,64.4980175 C157.915495,64.5397611 157.027713,64.3832228 156.171266,64.0284026 C155.314818,63.6735825 154.489704,63.2248394 153.695923,62.6821733 C153.946591,62.3482249 154.197258,62.0038407 154.447926,61.6490205 C154.698594,61.2942004 154.97015,60.9498161 155.262596,60.6158678 C157.059047,58.3617163 158.792831,56.0762572 160.463949,53.7594904 C162.135066,51.4427237 163.994184,49.2198799 166.041303,47.0909591 C166.626194,47.2996768 167.367753,47.4770869 168.265978,47.6231893 C169.164204,47.7692917 170.041541,47.7901634 170.897988,47.6858046 C171.754436,47.5814457 172.48555,47.2996768 173.09133,46.8404978 C173.69711,46.3813188 174,45.6508067 174,44.6489616 C174,43.1879376 173.801555,42.1965284 173.404664,41.674734 C173.007774,41.1529397 172.495994,40.9337861 171.869325,41.0172732 C171.242656,41.1007603 170.574209,41.3825292 169.863984,41.86258 C169.153759,42.3426308 168.474868,42.8539892 167.82731,43.3966553 C167.179752,43.9393214 166.626194,44.429808 166.166637,44.8681153 C165.70708,45.3064225 165.435523,45.5047043 165.351967,45.4629608 C163.889739,45.0872689 162.511068,44.6385258 161.215952,44.1167314 C159.920836,43.5949371 158.636164,43.146194 157.361937,42.7705021 C156.08771,42.3948102 154.782149,42.1965284 153.445255,42.1756566 C152.108362,42.1547848 150.625245,42.4782973 148.995905,43.146194 C148.118569,43.4801424 147.366566,43.9497573 146.739897,44.5550387 C146.113228,45.1603201 145.632781,45.8282168 145.298558,46.5587289 C144.964334,47.2892409 144.797223,48.0510606 144.797223,48.844188 C144.797223,49.6373153 145.006112,50.3886991 145.423892,51.0983394 C145.883449,51.8079797 146.37434,52.2880305 146.896564,52.5384917 C147.418788,52.788953 147.826123,52.6845941 148.118569,52.2254151 C146.155006,50.7643911 145.695448,49.2824952 146.739897,47.7797276 C147.867901,46.360447 149.131684,45.4316531 150.531244,44.9933459 C151.930805,44.5550387 153.382589,44.3985004 154.886594,44.523731 C156.3906,44.6489616 157.936384,44.9411665 159.523945,45.4003455 C161.111507,45.8595245 162.699068,46.2352164 164.28663,46.5274212 C162.65729,48.2389066 161.04884,49.9190843 159.461278,51.5679543 C157.873717,53.2168243 156.307044,54.8970021 154.76126,56.6084874 C154.176369,57.1928971 153.601923,57.8190502 153.037921,58.486947 C152.473918,59.1548437 151.815916,59.9270993 151.063913,60.8037137 C150.437244,60.3445347 149.810575,59.9270993 149.183906,59.5514074 C148.557237,59.1757155 147.930568,58.8939465 147.303899,58.7061006 C146.67723,58.5182546 146.050561,58.4660752 145.423892,58.5495623 C144.797223,58.6330494 144.170554,58.9043824 143.543885,59.3635614 C143.209661,59.6140227 142.990327,59.8853557 142.885882,60.1775606 C142.781437,60.4697654 142.770993,60.6993549 142.854549,60.8663291 C142.938105,61.0333032 143.094772,61.1063544 143.32455,61.0854827 C143.554329,61.0646109 143.83633,60.8872008 144.170554,60.5532525 C144.588333,60.0940735 145.037446,59.8123045 145.517892,59.7079457 C145.998338,59.6035868 146.499674,59.6244586 147.021898,59.770561 C147.544122,59.9166634 148.087235,60.1566888 148.651237,60.4906371 C149.215239,60.8245855 149.789686,61.2002774 150.374577,61.6177129 C149.413685,62.7447886 148.264791,64.1327615 146.927897,65.7816315 C145.591004,67.4305016 143.898997,69.4863712 141.851878,71.9492404 C141.350543,71.5735485 140.796985,71.1978566 140.191205,70.8221646 C139.585425,70.4464727 138.958756,70.1125244 138.311198,69.8203196 C137.66364,69.5281147 137.036971,69.2776535 136.431191,69.0689357 C135.825411,68.860218 135.292742,68.6932438 134.833185,68.5680132 C133.621625,68.401039 132.650288,68.5575773 131.919174,69.0376281 C131.18806,69.5176788 130.665836,70.1647038 130.352501,70.9787029 C130.039167,71.7927021 129.934722,72.6901883 130.039167,73.6711616 C130.143612,74.6521349 130.404724,75.5496212 130.822503,76.3636203 C131.240282,77.1776194 131.814729,77.8350803 132.545843,78.3360028 C133.276957,78.8369254 134.12296,79.0038996 135.083853,78.8369254 C136.128301,78.6699512 137.162305,78.3046952 138.185864,77.7411573 C139.209424,77.1776194 140.118094,76.6036457 140.911875,76.0192361 C141.705655,75.4348264 142.363658,74.923468 142.885882,74.4851608 C143.408106,74.0468535 143.710996,73.8485717 143.794552,73.8903152 C144.671889,74.2660071 145.476114,74.6521349 146.207228,75.0486986 C146.938342,75.4452623 147.648567,75.841826 148.337903,76.2383897 C149.027239,76.6349533 149.737464,77.0419529 150.468578,77.4593884 C151.199691,77.8768238 152.003917,78.2733875 152.881253,78.6490794 C154.635927,79.4422068 156.3906,80.0892317 158.145273,80.5901543 Z M170.934658,46 C170.223308,46 169.489727,45.9222222 168.733917,45.7666667 C167.978107,45.6111111 167.400135,45.5111111 167,45.4666667 C167.222297,45.2444444 167.600202,44.9222222 168.133715,44.5 C168.667228,44.0777778 169.234086,43.7222222 169.834288,43.4333333 C170.43449,43.1444444 171.012462,43 171.568205,43 C172.123947,43 172.535197,43.3111111 172.801954,43.9333333 C173.113169,44.7333333 173.057595,45.2777778 172.635231,45.5666667 C172.212866,45.8555556 171.646009,46 170.934658,46 Z M137.166557,76.3186243 C135.97393,76.9091499 134.930381,77.1158339 134.035911,76.9386762 C133.141441,76.7615185 132.417346,76.2989401 131.863626,75.5509409 C131.309907,74.8029418 131.022398,74.0155743 131.001102,73.1888384 C130.979805,72.3621025 131.267313,71.6239455 131.863626,70.9743673 C132.45994,70.3247891 133.418301,70 134.738709,70 C135.164647,70 135.654476,70.0984209 136.208196,70.2952628 C136.761915,70.4921047 137.326283,70.7283149 137.9013,71.0038936 C138.476316,71.2794722 139.040684,71.5648929 139.594404,71.8601557 C140.148124,72.1554186 140.616656,72.4014709 141,72.5983128 C139.636998,74.4879948 138.359183,75.7280986 137.166557,76.3186243 Z M188.32489,83.9994788 L188.416566,83.981237 C188.603378,83.9186939 188.769432,83.7414882 188.91473,83.44962 C189.060028,83.1577518 189.132676,82.8033405 189.132676,82.3863859 C189.132676,80.5100905 188.65527,78.8839679 187.700456,77.5080179 C186.745642,76.1320679 185.541746,74.9333236 184.088769,73.911785 C182.635791,72.8902464 181.037516,72.0354896 179.293943,71.3475146 C177.55037,70.6595397 175.889825,70.0653794 174.312306,69.565034 C174.063224,69.4816431 173.814143,69.408676 173.565061,69.3461329 C173.315979,69.2835897 173.087654,69.2106226 172.880086,69.1272317 C173.544304,67.7929772 174.187765,66.4691466 174.81047,65.1557398 C175.433175,63.842333 176.11815,62.5393501 176.865395,61.246791 C178.775023,60.8715319 180.674272,60.2461001 182.563143,59.3704956 C184.452013,58.4948911 186.143694,57.3899616 187.638185,56.0557071 C189.132676,54.7214526 190.367707,53.1891446 191.343278,51.4587833 C192.318849,49.728422 192.868904,47.820855 192.993445,45.7360823 C193.034959,44.7353914 192.879283,43.8597869 192.526417,43.1092688 C192.173551,42.3587506 191.665009,41.8062858 191.00079,41.4518745 C190.336572,41.0974631 189.578948,40.951529 188.727918,41.0140722 C187.876889,41.0766154 187.015481,41.4206029 186.143694,42.0460347 C184.815258,42.9633347 183.600984,44.0891119 182.500872,45.4233664 C181.400761,46.7576209 180.394055,48.1856902 179.480755,49.7075743 C178.567455,51.2294583 177.737182,52.8034617 176.989936,54.4295844 C176.242691,56.0557071 175.557716,57.6401343 174.935011,59.1828661 C174.727443,59.6832115 174.540631,59.9959274 174.374577,60.1210138 C174.208522,60.2461001 173.814143,60.2461001 173.191438,60.1210138 C171.240297,59.8291456 169.756184,59.1515945 168.7391,58.0883604 C167.722016,57.0251264 167.203095,55.8368059 167.182338,54.5233991 C167.161581,53.2099924 167.670123,51.9070094 168.707965,50.6144504 C169.745806,49.3218913 171.364838,48.3003527 173.565061,47.5498346 C174.519874,47.1745755 174.893497,46.9556743 174.685929,46.8931312 C174.478361,46.830588 173.917927,46.8827073 173.004627,47.0494891 C172.13284,47.1745755 171.271432,47.4455959 170.420402,47.8625505 C169.569373,48.279505 168.790992,48.8006982 168.08526,49.42613 C167.379528,50.0515618 166.808715,50.7603845 166.372822,51.5525981 C165.936929,52.3448117 165.698225,53.157873 165.656712,53.9917821 C165.573685,55.3677321 165.739739,56.5039332 166.154876,57.4003854 C166.570012,58.2968377 167.151203,59.0160843 167.898449,59.5581252 C168.645694,60.1001661 169.517481,60.5275445 170.513808,60.8402604 C171.510135,61.1529763 172.568733,61.4344206 173.689602,61.6845933 C173.025383,62.9354569 172.3923,64.1029296 171.790352,65.1870114 C171.188405,66.2710932 170.493051,67.4177181 169.704292,68.6268863 C169.123101,68.5851908 168.375855,68.5330715 167.462555,68.4705283 C166.549255,68.4079852 165.573685,68.3975613 164.535844,68.4392568 C163.498002,68.4809522 162.460161,68.5956147 161.42232,68.7832442 C160.384479,68.9708738 159.460801,69.2940136 158.651285,69.7526635 C157.841769,70.2113135 157.187929,70.8367453 156.689765,71.6289589 C156.191601,72.4211726 155.963276,73.4218634 156.00479,74.6310316 C156.00479,75.3398543 156.212358,75.9235907 156.627495,76.3822406 C157.042631,76.8408906 157.561552,77.2057259 158.184256,77.4767463 C158.806961,77.7477667 159.644658,78.0326008 160.35039,78.1159917 C160.700234,78.15733 161.586746,78.2182568 162.387592,78.1159917 C163.202273,78.0119596 163.929385,77.7439704 164.041256,77.6994479 C165.324459,77.1887588 165.676682,77.0967288 166.791611,76.1634383 C168.099291,75.0687988 169.102344,74.0472952 170.140185,72.7547362 C170.638349,72.0876089 171.126134,71.6185351 171.603541,71.3475146 C172.080948,71.0764942 172.776301,71.0452226 173.689602,71.2536999 C174.976525,71.545568 176.43988,71.9625226 178.079669,72.5045635 C179.719458,73.0466044 181.255463,73.7554271 182.687684,74.6310316 C184.119904,75.5066361 185.3238,76.5698702 186.29937,77.8207338 C187.274941,79.0715974 187.741969,80.551786 187.700456,82.2612996 C187.700456,82.9701223 187.773105,83.44962 187.918402,83.6997927 C188.0637,83.9499655 188.229755,84.0437802 188.416566,83.981237 L188.32489,83.9994788 Z M177,59 C178.120197,56.8918919 179.240394,54.7941176 180.360591,52.7066773 C181.480788,50.6192369 182.794865,48.6248013 184.302822,46.7233704 C185.509188,45.2352941 186.607843,44.2019078 187.598787,43.6232114 C188.58973,43.0445151 189.386793,42.8688394 189.989976,43.0961844 C190.593159,43.3235294 190.927064,43.9332273 190.991691,44.9252782 C191.056318,45.9173291 190.743955,47.2607313 190.054603,48.9554849 C189.408336,50.4022258 188.578959,51.7146264 187.566473,52.8926868 C186.553988,54.0707472 185.455333,55.0937997 184.270509,55.9618442 C183.085685,56.8298887 181.857777,57.5222576 180.586784,58.0389507 C179.315792,58.5556439 178.120197,58.8759936 177,59 Z M159.878288,76 C159.061752,76 158.38811,75.8156098 157.857362,75.4468293 C157.326614,75.0780488 157.040827,74.6068293 157,74.0331707 C157,72.8858537 157.285787,71.9741463 157.857362,71.2980488 C158.428937,70.6219512 159.153612,70.0995122 160.031388,69.7307317 C160.909164,69.3619512 161.837973,69.1365854 162.817815,69.0546341 C163.797658,68.9726829 164.695847,68.9829268 165.512382,69.0853659 C166.328918,69.1878049 166.97194,69.3312195 167.441447,69.5156098 C167.910955,69.7 168.084469,69.8946341 167.961989,70.0995122 C167.472068,70.755122 166.951526,71.4312195 166.400365,72.1278049 C165.849203,72.8243902 165.257215,73.4595122 164.6244,74.0331707 C163.991585,74.6068293 163.287323,75.0780488 162.511615,75.4468293 C161.735906,75.8156098 160.85813,76 159.878288,76 Z" id="ZL"></path>
        </g>
    </g>
</svg>